<mxfile host="www.draw.io" modified="2019-12-17T01:09:58.482Z" agent="Mozilla/5.0 (Windows NT 10.0; Win64; x64) AppleWebKit/537.36 (KHTML, like Gecko) Chrome/78.0.3904.108 Safari/537.36" etag="Pr7ppfwGvs4st1S87OAK" version="12.4.2" type="github" pages="1">
  <diagram id="J0S1saltvpy3Ehm_OOfY" name="Page-1">
    <mxGraphModel dx="1117" dy="2208" grid="1" gridSize="10" guides="1" tooltips="1" connect="1" arrows="1" fold="1" page="1" pageScale="1" pageWidth="1169" pageHeight="1654" math="0" shadow="0">
      <root>
        <mxCell id="0"/>
        <mxCell id="1" parent="0"/>
        <mxCell id="FrjaeNuZRPIRpdWYAqq8-6" style="edgeStyle=orthogonalEdgeStyle;rounded=0;orthogonalLoop=1;jettySize=auto;html=1;exitX=0.75;exitY=1;exitDx=0;exitDy=0;entryX=0;entryY=0.091;entryDx=0;entryDy=0;entryPerimeter=0;" parent="1" source="FrjaeNuZRPIRpdWYAqq8-1" target="FrjaeNuZRPIRpdWYAqq8-3" edge="1">
          <mxGeometry relative="1" as="geometry"/>
        </mxCell>
        <mxCell id="FrjaeNuZRPIRpdWYAqq8-1" value="&lt;font style=&quot;vertical-align: inherit&quot;&gt;&lt;font style=&quot;vertical-align: inherit&quot;&gt;&lt;font style=&quot;vertical-align: inherit&quot;&gt;&lt;font style=&quot;vertical-align: inherit&quot; face=&quot;Verdana&quot;&gt;&lt;font style=&quot;vertical-align: inherit&quot;&gt;&lt;font style=&quot;vertical-align: inherit&quot;&gt;ROM&lt;/font&gt;&lt;/font&gt;&lt;/font&gt;&lt;/font&gt;&lt;/font&gt;&lt;/font&gt;" style="rounded=0;whiteSpace=wrap;html=1;" parent="1" vertex="1">
          <mxGeometry x="20" y="20" width="90" height="40" as="geometry"/>
        </mxCell>
        <mxCell id="FrjaeNuZRPIRpdWYAqq8-8" style="edgeStyle=orthogonalEdgeStyle;rounded=0;orthogonalLoop=1;jettySize=auto;html=1;exitX=1;exitY=0.5;exitDx=0;exitDy=0;entryX=-0.017;entryY=0.339;entryDx=0;entryDy=0;entryPerimeter=0;" parent="1" source="FrjaeNuZRPIRpdWYAqq8-2" target="FrjaeNuZRPIRpdWYAqq8-3" edge="1">
          <mxGeometry relative="1" as="geometry"/>
        </mxCell>
        <mxCell id="FrjaeNuZRPIRpdWYAqq8-10" style="edgeStyle=orthogonalEdgeStyle;rounded=0;orthogonalLoop=1;jettySize=auto;html=1;exitX=1;exitY=0.5;exitDx=0;exitDy=0;entryX=0.5;entryY=0;entryDx=0;entryDy=0;" parent="1" source="FrjaeNuZRPIRpdWYAqq8-2" target="FrjaeNuZRPIRpdWYAqq8-9" edge="1">
          <mxGeometry relative="1" as="geometry"/>
        </mxCell>
        <mxCell id="FrjaeNuZRPIRpdWYAqq8-2" value="PC" style="whiteSpace=wrap;html=1;aspect=fixed;" parent="1" vertex="1">
          <mxGeometry x="90" y="160" width="30" height="30" as="geometry"/>
        </mxCell>
        <mxCell id="bbsbrAJn6nbGuu4Z0uta-1" style="edgeStyle=orthogonalEdgeStyle;rounded=0;orthogonalLoop=1;jettySize=auto;html=1;exitX=1;exitY=0.25;exitDx=0;exitDy=0;entryX=0;entryY=0.5;entryDx=0;entryDy=0;" edge="1" parent="1" source="FrjaeNuZRPIRpdWYAqq8-3" target="FrjaeNuZRPIRpdWYAqq8-14">
          <mxGeometry relative="1" as="geometry"/>
        </mxCell>
        <mxCell id="bbsbrAJn6nbGuu4Z0uta-2" style="edgeStyle=orthogonalEdgeStyle;rounded=0;orthogonalLoop=1;jettySize=auto;html=1;exitX=1;exitY=0.25;exitDx=0;exitDy=0;entryX=0;entryY=0.5;entryDx=0;entryDy=0;" edge="1" parent="1" source="FrjaeNuZRPIRpdWYAqq8-3" target="FrjaeNuZRPIRpdWYAqq8-15">
          <mxGeometry relative="1" as="geometry"/>
        </mxCell>
        <mxCell id="bbsbrAJn6nbGuu4Z0uta-3" style="edgeStyle=orthogonalEdgeStyle;rounded=0;orthogonalLoop=1;jettySize=auto;html=1;exitX=1;exitY=0.25;exitDx=0;exitDy=0;entryX=0;entryY=0.5;entryDx=0;entryDy=0;" edge="1" parent="1" source="FrjaeNuZRPIRpdWYAqq8-3" target="FrjaeNuZRPIRpdWYAqq8-16">
          <mxGeometry relative="1" as="geometry"/>
        </mxCell>
        <mxCell id="bbsbrAJn6nbGuu4Z0uta-4" style="edgeStyle=orthogonalEdgeStyle;rounded=0;orthogonalLoop=1;jettySize=auto;html=1;exitX=1;exitY=0.25;exitDx=0;exitDy=0;entryX=0;entryY=0.5;entryDx=0;entryDy=0;" edge="1" parent="1" source="FrjaeNuZRPIRpdWYAqq8-3" target="FrjaeNuZRPIRpdWYAqq8-17">
          <mxGeometry relative="1" as="geometry"/>
        </mxCell>
        <mxCell id="bbsbrAJn6nbGuu4Z0uta-5" style="edgeStyle=orthogonalEdgeStyle;rounded=0;orthogonalLoop=1;jettySize=auto;html=1;exitX=1;exitY=0.25;exitDx=0;exitDy=0;entryX=0;entryY=0.25;entryDx=0;entryDy=0;" edge="1" parent="1" source="FrjaeNuZRPIRpdWYAqq8-3" target="FrjaeNuZRPIRpdWYAqq8-18">
          <mxGeometry relative="1" as="geometry"/>
        </mxCell>
        <mxCell id="FrjaeNuZRPIRpdWYAqq8-3" value="IFID" style="rounded=0;whiteSpace=wrap;html=1;" parent="1" vertex="1">
          <mxGeometry x="180" y="100" width="40" height="220" as="geometry"/>
        </mxCell>
        <mxCell id="FrjaeNuZRPIRpdWYAqq8-12" style="edgeStyle=orthogonalEdgeStyle;rounded=0;orthogonalLoop=1;jettySize=auto;html=1;exitX=0.5;exitY=0;exitDx=0;exitDy=0;entryX=0.17;entryY=1.1;entryDx=0;entryDy=0;entryPerimeter=0;" parent="1" source="FrjaeNuZRPIRpdWYAqq8-7" target="FrjaeNuZRPIRpdWYAqq8-1" edge="1">
          <mxGeometry relative="1" as="geometry"/>
        </mxCell>
        <mxCell id="FrjaeNuZRPIRpdWYAqq8-13" style="edgeStyle=orthogonalEdgeStyle;rounded=0;orthogonalLoop=1;jettySize=auto;html=1;exitX=0.5;exitY=0;exitDx=0;exitDy=0;entryX=0;entryY=0.5;entryDx=0;entryDy=0;" parent="1" source="FrjaeNuZRPIRpdWYAqq8-7" target="FrjaeNuZRPIRpdWYAqq8-2" edge="1">
          <mxGeometry relative="1" as="geometry"/>
        </mxCell>
        <mxCell id="FrjaeNuZRPIRpdWYAqq8-7" value="" style="shape=trapezoid;perimeter=trapezoidPerimeter;whiteSpace=wrap;html=1;rotation=-90;" parent="1" vertex="1">
          <mxGeometry x="21.25" y="291.25" width="87.5" height="20" as="geometry"/>
        </mxCell>
        <mxCell id="FrjaeNuZRPIRpdWYAqq8-9" value="+4" style="whiteSpace=wrap;html=1;aspect=fixed;" parent="1" vertex="1">
          <mxGeometry x="130" y="262.5" width="30" height="30" as="geometry"/>
        </mxCell>
        <mxCell id="bbsbrAJn6nbGuu4Z0uta-12" style="edgeStyle=orthogonalEdgeStyle;rounded=0;orthogonalLoop=1;jettySize=auto;html=1;exitX=1;exitY=0.5;exitDx=0;exitDy=0;entryX=0;entryY=0.135;entryDx=0;entryDy=0;entryPerimeter=0;" edge="1" parent="1" source="FrjaeNuZRPIRpdWYAqq8-14" target="bbsbrAJn6nbGuu4Z0uta-7">
          <mxGeometry relative="1" as="geometry"/>
        </mxCell>
        <mxCell id="FrjaeNuZRPIRpdWYAqq8-14" value="OprGen" style="rounded=0;whiteSpace=wrap;html=1;" parent="1" vertex="1">
          <mxGeometry x="280" y="110" width="80" height="30" as="geometry"/>
        </mxCell>
        <mxCell id="bbsbrAJn6nbGuu4Z0uta-9" style="edgeStyle=orthogonalEdgeStyle;rounded=0;orthogonalLoop=1;jettySize=auto;html=1;exitX=1;exitY=0.5;exitDx=0;exitDy=0;entryX=-0.053;entryY=0.313;entryDx=0;entryDy=0;entryPerimeter=0;" edge="1" parent="1" source="FrjaeNuZRPIRpdWYAqq8-15" target="bbsbrAJn6nbGuu4Z0uta-7">
          <mxGeometry relative="1" as="geometry"/>
        </mxCell>
        <mxCell id="FrjaeNuZRPIRpdWYAqq8-15" value="FunctGen" style="rounded=0;whiteSpace=wrap;html=1;" parent="1" vertex="1">
          <mxGeometry x="280" y="150" width="80" height="30" as="geometry"/>
        </mxCell>
        <mxCell id="bbsbrAJn6nbGuu4Z0uta-13" style="edgeStyle=orthogonalEdgeStyle;rounded=0;orthogonalLoop=1;jettySize=auto;html=1;exitX=1;exitY=0.5;exitDx=0;exitDy=0;entryX=0;entryY=0.5;entryDx=0;entryDy=0;" edge="1" parent="1" source="FrjaeNuZRPIRpdWYAqq8-16" target="bbsbrAJn6nbGuu4Z0uta-7">
          <mxGeometry relative="1" as="geometry"/>
        </mxCell>
        <mxCell id="FrjaeNuZRPIRpdWYAqq8-16" value="RegGen" style="rounded=0;whiteSpace=wrap;html=1;" parent="1" vertex="1">
          <mxGeometry x="280" y="192.5" width="80" height="30" as="geometry"/>
        </mxCell>
        <mxCell id="bbsbrAJn6nbGuu4Z0uta-14" style="edgeStyle=orthogonalEdgeStyle;rounded=0;orthogonalLoop=1;jettySize=auto;html=1;exitX=1;exitY=0.5;exitDx=0;exitDy=0;entryX=0;entryY=0.667;entryDx=0;entryDy=0;entryPerimeter=0;" edge="1" parent="1" source="FrjaeNuZRPIRpdWYAqq8-17" target="bbsbrAJn6nbGuu4Z0uta-7">
          <mxGeometry relative="1" as="geometry"/>
        </mxCell>
        <mxCell id="FrjaeNuZRPIRpdWYAqq8-17" value="MemGen" style="rounded=0;whiteSpace=wrap;html=1;" parent="1" vertex="1">
          <mxGeometry x="280" y="230" width="80" height="30" as="geometry"/>
        </mxCell>
        <mxCell id="bbsbrAJn6nbGuu4Z0uta-15" style="edgeStyle=orthogonalEdgeStyle;rounded=0;orthogonalLoop=1;jettySize=auto;html=1;exitX=1;exitY=0.5;exitDx=0;exitDy=0;entryX=-0.08;entryY=0.843;entryDx=0;entryDy=0;entryPerimeter=0;" edge="1" parent="1" source="FrjaeNuZRPIRpdWYAqq8-18" target="bbsbrAJn6nbGuu4Z0uta-7">
          <mxGeometry relative="1" as="geometry"/>
        </mxCell>
        <mxCell id="bbsbrAJn6nbGuu4Z0uta-43" style="edgeStyle=orthogonalEdgeStyle;rounded=0;orthogonalLoop=1;jettySize=auto;html=1;exitX=0.25;exitY=1;exitDx=0;exitDy=0;" edge="1" parent="1" source="FrjaeNuZRPIRpdWYAqq8-18">
          <mxGeometry relative="1" as="geometry">
            <mxPoint x="300.14285714285734" y="300.5714285714289" as="targetPoint"/>
          </mxGeometry>
        </mxCell>
        <mxCell id="bbsbrAJn6nbGuu4Z0uta-47" style="edgeStyle=orthogonalEdgeStyle;rounded=0;orthogonalLoop=1;jettySize=auto;html=1;exitX=0.5;exitY=1;exitDx=0;exitDy=0;entryX=0.25;entryY=1;entryDx=0;entryDy=0;" edge="1" parent="1" source="FrjaeNuZRPIRpdWYAqq8-18" target="FrjaeNuZRPIRpdWYAqq8-7">
          <mxGeometry relative="1" as="geometry"/>
        </mxCell>
        <mxCell id="FrjaeNuZRPIRpdWYAqq8-18" value="BranchGen" style="rounded=0;whiteSpace=wrap;html=1;" parent="1" vertex="1">
          <mxGeometry x="280" y="270" width="80" height="30" as="geometry"/>
        </mxCell>
        <mxCell id="bbsbrAJn6nbGuu4Z0uta-27" style="edgeStyle=orthogonalEdgeStyle;rounded=0;orthogonalLoop=1;jettySize=auto;html=1;exitX=1;exitY=0.25;exitDx=0;exitDy=0;entryX=0.25;entryY=1;entryDx=0;entryDy=0;" edge="1" parent="1" source="bbsbrAJn6nbGuu4Z0uta-7" target="bbsbrAJn6nbGuu4Z0uta-16">
          <mxGeometry relative="1" as="geometry"/>
        </mxCell>
        <mxCell id="bbsbrAJn6nbGuu4Z0uta-28" style="edgeStyle=orthogonalEdgeStyle;rounded=0;orthogonalLoop=1;jettySize=auto;html=1;exitX=1;exitY=0.5;exitDx=0;exitDy=0;entryX=0.682;entryY=1.021;entryDx=0;entryDy=0;entryPerimeter=0;" edge="1" parent="1" source="bbsbrAJn6nbGuu4Z0uta-7" target="bbsbrAJn6nbGuu4Z0uta-16">
          <mxGeometry relative="1" as="geometry"/>
        </mxCell>
        <mxCell id="bbsbrAJn6nbGuu4Z0uta-7" value="IDEX" style="rounded=0;whiteSpace=wrap;html=1;" vertex="1" parent="1">
          <mxGeometry x="400" y="95" width="50" height="225" as="geometry"/>
        </mxCell>
        <mxCell id="bbsbrAJn6nbGuu4Z0uta-29" style="edgeStyle=orthogonalEdgeStyle;rounded=0;orthogonalLoop=1;jettySize=auto;html=1;exitX=0.5;exitY=0;exitDx=0;exitDy=0;entryX=-0.092;entryY=0.401;entryDx=0;entryDy=0;entryPerimeter=0;" edge="1" parent="1" source="bbsbrAJn6nbGuu4Z0uta-16" target="bbsbrAJn6nbGuu4Z0uta-17">
          <mxGeometry relative="1" as="geometry"/>
        </mxCell>
        <mxCell id="bbsbrAJn6nbGuu4Z0uta-35" style="edgeStyle=orthogonalEdgeStyle;rounded=0;orthogonalLoop=1;jettySize=auto;html=1;exitX=0.5;exitY=0;exitDx=0;exitDy=0;entryX=0.5;entryY=0;entryDx=0;entryDy=0;" edge="1" parent="1" source="bbsbrAJn6nbGuu4Z0uta-16" target="bbsbrAJn6nbGuu4Z0uta-22">
          <mxGeometry relative="1" as="geometry">
            <Array as="points">
              <mxPoint x="560" y="183"/>
              <mxPoint x="560" y="60"/>
              <mxPoint x="970" y="60"/>
            </Array>
          </mxGeometry>
        </mxCell>
        <mxCell id="bbsbrAJn6nbGuu4Z0uta-16" value="ALU" style="shape=trapezoid;perimeter=trapezoidPerimeter;whiteSpace=wrap;html=1;rotation=90;" vertex="1" parent="1">
          <mxGeometry x="457.5" y="167.5" width="132.5" height="32.5" as="geometry"/>
        </mxCell>
        <mxCell id="bbsbrAJn6nbGuu4Z0uta-30" style="edgeStyle=orthogonalEdgeStyle;rounded=0;orthogonalLoop=1;jettySize=auto;html=1;exitX=1;exitY=0.25;exitDx=0;exitDy=0;entryX=0.25;entryY=0;entryDx=0;entryDy=0;" edge="1" parent="1" source="bbsbrAJn6nbGuu4Z0uta-17" target="bbsbrAJn6nbGuu4Z0uta-22">
          <mxGeometry relative="1" as="geometry">
            <Array as="points">
              <mxPoint x="650" y="151"/>
              <mxPoint x="650" y="75"/>
              <mxPoint x="940" y="75"/>
            </Array>
          </mxGeometry>
        </mxCell>
        <mxCell id="bbsbrAJn6nbGuu4Z0uta-31" style="edgeStyle=orthogonalEdgeStyle;rounded=0;orthogonalLoop=1;jettySize=auto;html=1;exitX=1;exitY=0.5;exitDx=0;exitDy=0;entryX=0;entryY=0.5;entryDx=0;entryDy=0;" edge="1" parent="1" source="bbsbrAJn6nbGuu4Z0uta-17" target="bbsbrAJn6nbGuu4Z0uta-20">
          <mxGeometry relative="1" as="geometry"/>
        </mxCell>
        <mxCell id="bbsbrAJn6nbGuu4Z0uta-17" value="EX&lt;br&gt;MEM" style="rounded=0;whiteSpace=wrap;html=1;" vertex="1" parent="1">
          <mxGeometry x="580" y="95" width="40" height="220" as="geometry"/>
        </mxCell>
        <mxCell id="bbsbrAJn6nbGuu4Z0uta-38" style="edgeStyle=orthogonalEdgeStyle;rounded=0;orthogonalLoop=1;jettySize=auto;html=1;exitX=1;exitY=0.5;exitDx=0;exitDy=0;entryX=0;entryY=0.5;entryDx=0;entryDy=0;" edge="1" parent="1" source="bbsbrAJn6nbGuu4Z0uta-18" target="bbsbrAJn6nbGuu4Z0uta-23">
          <mxGeometry relative="1" as="geometry"/>
        </mxCell>
        <mxCell id="bbsbrAJn6nbGuu4Z0uta-18" value="MEM&lt;br&gt;WB" style="rounded=0;whiteSpace=wrap;html=1;" vertex="1" parent="1">
          <mxGeometry x="750" y="95" width="40" height="220" as="geometry"/>
        </mxCell>
        <mxCell id="bbsbrAJn6nbGuu4Z0uta-32" style="edgeStyle=orthogonalEdgeStyle;rounded=0;orthogonalLoop=1;jettySize=auto;html=1;exitX=0.25;exitY=0;exitDx=0;exitDy=0;entryX=0.25;entryY=1;entryDx=0;entryDy=0;" edge="1" parent="1" source="bbsbrAJn6nbGuu4Z0uta-20" target="bbsbrAJn6nbGuu4Z0uta-21">
          <mxGeometry relative="1" as="geometry"/>
        </mxCell>
        <mxCell id="bbsbrAJn6nbGuu4Z0uta-20" value="AddGen" style="rounded=0;whiteSpace=wrap;html=1;" vertex="1" parent="1">
          <mxGeometry x="650" y="190" width="70" height="30" as="geometry"/>
        </mxCell>
        <mxCell id="bbsbrAJn6nbGuu4Z0uta-37" style="edgeStyle=orthogonalEdgeStyle;rounded=0;orthogonalLoop=1;jettySize=auto;html=1;exitX=0.75;exitY=1;exitDx=0;exitDy=0;entryX=0;entryY=0.25;entryDx=0;entryDy=0;" edge="1" parent="1" source="bbsbrAJn6nbGuu4Z0uta-21" target="bbsbrAJn6nbGuu4Z0uta-18">
          <mxGeometry relative="1" as="geometry"/>
        </mxCell>
        <mxCell id="bbsbrAJn6nbGuu4Z0uta-21" value="&lt;font style=&quot;vertical-align: inherit&quot;&gt;&lt;font style=&quot;vertical-align: inherit&quot;&gt;&lt;font style=&quot;vertical-align: inherit&quot;&gt;&lt;font style=&quot;vertical-align: inherit&quot; face=&quot;Verdana&quot;&gt;&lt;font style=&quot;vertical-align: inherit&quot;&gt;&lt;font style=&quot;vertical-align: inherit&quot;&gt;RAM&lt;/font&gt;&lt;/font&gt;&lt;/font&gt;&lt;/font&gt;&lt;/font&gt;&lt;/font&gt;" style="rounded=0;whiteSpace=wrap;html=1;" vertex="1" parent="1">
          <mxGeometry x="640" y="-10" width="90" height="40" as="geometry"/>
        </mxCell>
        <mxCell id="bbsbrAJn6nbGuu4Z0uta-36" style="edgeStyle=orthogonalEdgeStyle;rounded=0;orthogonalLoop=1;jettySize=auto;html=1;exitX=0.75;exitY=0;exitDx=0;exitDy=0;entryX=0.5;entryY=0;entryDx=0;entryDy=0;" edge="1" parent="1" source="bbsbrAJn6nbGuu4Z0uta-22" target="FrjaeNuZRPIRpdWYAqq8-14">
          <mxGeometry relative="1" as="geometry">
            <Array as="points">
              <mxPoint x="1000" y="51"/>
              <mxPoint x="320" y="51"/>
            </Array>
          </mxGeometry>
        </mxCell>
        <mxCell id="bbsbrAJn6nbGuu4Z0uta-22" value="ReadProxy" style="rounded=0;whiteSpace=wrap;html=1;" vertex="1" parent="1">
          <mxGeometry x="910" y="95" width="120" height="30" as="geometry"/>
        </mxCell>
        <mxCell id="bbsbrAJn6nbGuu4Z0uta-23" value="RegFile" style="rounded=0;whiteSpace=wrap;html=1;" vertex="1" parent="1">
          <mxGeometry x="910" y="175" width="120" height="60" as="geometry"/>
        </mxCell>
        <mxCell id="bbsbrAJn6nbGuu4Z0uta-53" style="edgeStyle=orthogonalEdgeStyle;rounded=0;orthogonalLoop=1;jettySize=auto;html=1;exitX=1;exitY=0.5;exitDx=0;exitDy=0;exitPerimeter=0;entryX=0.25;entryY=0;entryDx=0;entryDy=0;" edge="1" parent="1" source="bbsbrAJn6nbGuu4Z0uta-24" target="bbsbrAJn6nbGuu4Z0uta-25">
          <mxGeometry relative="1" as="geometry">
            <Array as="points">
              <mxPoint x="286" y="355"/>
            </Array>
          </mxGeometry>
        </mxCell>
        <mxCell id="bbsbrAJn6nbGuu4Z0uta-24" value="" style="shape=xor;whiteSpace=wrap;html=1;rotation=-180;" vertex="1" parent="1">
          <mxGeometry x="350" y="330" width="40" height="50" as="geometry"/>
        </mxCell>
        <mxCell id="bbsbrAJn6nbGuu4Z0uta-25" value="PipelineController" style="rounded=0;whiteSpace=wrap;html=1;" vertex="1" parent="1">
          <mxGeometry x="48.75" y="470" width="950" height="50" as="geometry"/>
        </mxCell>
        <mxCell id="bbsbrAJn6nbGuu4Z0uta-40" value="" style="endArrow=classic;html=1;" edge="1" parent="1">
          <mxGeometry width="50" height="50" relative="1" as="geometry">
            <mxPoint x="600" y="470" as="sourcePoint"/>
            <mxPoint x="600" y="320" as="targetPoint"/>
          </mxGeometry>
        </mxCell>
        <mxCell id="bbsbrAJn6nbGuu4Z0uta-41" value="" style="endArrow=classic;html=1;entryX=0.5;entryY=1;entryDx=0;entryDy=0;" edge="1" parent="1" target="bbsbrAJn6nbGuu4Z0uta-18">
          <mxGeometry width="50" height="50" relative="1" as="geometry">
            <mxPoint x="770" y="470" as="sourcePoint"/>
            <mxPoint x="810" y="430" as="targetPoint"/>
          </mxGeometry>
        </mxCell>
        <mxCell id="bbsbrAJn6nbGuu4Z0uta-42" value="" style="endArrow=classic;html=1;entryX=0.5;entryY=1;entryDx=0;entryDy=0;" edge="1" parent="1" target="FrjaeNuZRPIRpdWYAqq8-3">
          <mxGeometry width="50" height="50" relative="1" as="geometry">
            <mxPoint x="200" y="470" as="sourcePoint"/>
            <mxPoint x="250" y="430" as="targetPoint"/>
          </mxGeometry>
        </mxCell>
        <mxCell id="bbsbrAJn6nbGuu4Z0uta-44" value="" style="endArrow=classic;html=1;entryX=0.75;entryY=1;entryDx=0;entryDy=0;" edge="1" parent="1" target="FrjaeNuZRPIRpdWYAqq8-7">
          <mxGeometry width="50" height="50" relative="1" as="geometry">
            <mxPoint x="130" y="280" as="sourcePoint"/>
            <mxPoint x="180" y="230" as="targetPoint"/>
          </mxGeometry>
        </mxCell>
        <mxCell id="bbsbrAJn6nbGuu4Z0uta-48" value="" style="endArrow=classic;html=1;entryX=0.5;entryY=1;entryDx=0;entryDy=0;" edge="1" parent="1" target="bbsbrAJn6nbGuu4Z0uta-7">
          <mxGeometry width="50" height="50" relative="1" as="geometry">
            <mxPoint x="425" y="467" as="sourcePoint"/>
            <mxPoint x="480" y="410" as="targetPoint"/>
          </mxGeometry>
        </mxCell>
        <mxCell id="bbsbrAJn6nbGuu4Z0uta-55" value="" style="endArrow=none;html=1;" edge="1" parent="1">
          <mxGeometry width="50" height="50" relative="1" as="geometry">
            <mxPoint x="450" y="292.5" as="sourcePoint"/>
            <mxPoint x="500" y="293" as="targetPoint"/>
          </mxGeometry>
        </mxCell>
        <mxCell id="bbsbrAJn6nbGuu4Z0uta-56" value="" style="endArrow=none;html=1;" edge="1" parent="1">
          <mxGeometry width="50" height="50" relative="1" as="geometry">
            <mxPoint x="380" y="350" as="sourcePoint"/>
            <mxPoint x="500" y="350" as="targetPoint"/>
          </mxGeometry>
        </mxCell>
        <mxCell id="bbsbrAJn6nbGuu4Z0uta-57" value="" style="endArrow=none;html=1;" edge="1" parent="1">
          <mxGeometry width="50" height="50" relative="1" as="geometry">
            <mxPoint x="500" y="350" as="sourcePoint"/>
            <mxPoint x="500" y="290" as="targetPoint"/>
          </mxGeometry>
        </mxCell>
        <mxCell id="bbsbrAJn6nbGuu4Z0uta-58" value="" style="endArrow=none;html=1;" edge="1" parent="1">
          <mxGeometry width="50" height="50" relative="1" as="geometry">
            <mxPoint x="380" y="370" as="sourcePoint"/>
            <mxPoint x="660" y="370" as="targetPoint"/>
          </mxGeometry>
        </mxCell>
        <mxCell id="bbsbrAJn6nbGuu4Z0uta-59" value="" style="endArrow=none;html=1;" edge="1" parent="1">
          <mxGeometry width="50" height="50" relative="1" as="geometry">
            <mxPoint x="620" y="292.5" as="sourcePoint"/>
            <mxPoint x="660" y="293" as="targetPoint"/>
          </mxGeometry>
        </mxCell>
        <mxCell id="bbsbrAJn6nbGuu4Z0uta-60" value="" style="endArrow=none;html=1;" edge="1" parent="1">
          <mxGeometry width="50" height="50" relative="1" as="geometry">
            <mxPoint x="660" y="370" as="sourcePoint"/>
            <mxPoint x="660" y="290" as="targetPoint"/>
          </mxGeometry>
        </mxCell>
        <mxCell id="bbsbrAJn6nbGuu4Z0uta-61" value="" style="endArrow=classic;html=1;entryX=0;entryY=0;entryDx=0;entryDy=0;" edge="1" parent="1" target="FrjaeNuZRPIRpdWYAqq8-7">
          <mxGeometry width="50" height="50" relative="1" as="geometry">
            <mxPoint x="60" y="470" as="sourcePoint"/>
            <mxPoint x="110" y="420" as="targetPoint"/>
          </mxGeometry>
        </mxCell>
      </root>
    </mxGraphModel>
  </diagram>
</mxfile>
